<svg width="86" height="22" viewBox="0 0 86 22" fill="none" xmlns="http://www.w3.org/2000/svg">
<path d="M15.304 3.98262C13.6205 2.25996 11.3786 1.3125 8.99598 1.3125C4.07812 1.3125 0.0763393 5.39766 0.0763393 10.418C0.0763393 12.0217 0.486161 13.5885 1.26562 14.9707L0 19.6875L4.72902 18.4201C6.0308 19.1461 7.49732 19.5275 8.99196 19.5275H8.99598C13.9098 19.5275 18 15.4424 18 10.4221C18 7.98984 16.9875 5.70527 15.304 3.98262ZM8.99598 17.9936C7.66205 17.9936 6.35625 17.6285 5.2192 16.9395L4.95 16.7754L2.14554 17.526L2.89286 14.7328L2.71607 14.4457C1.97277 13.2398 1.58304 11.8494 1.58304 10.418C1.58304 6.24668 4.90982 2.85059 9 2.85059C10.9808 2.85059 12.8411 3.63809 14.2393 5.06953C15.6375 6.50098 16.4973 8.4 16.4933 10.4221C16.4933 14.5975 13.0821 17.9936 8.99598 17.9936ZM13.0621 12.3252C12.8411 12.2104 11.7442 11.6607 11.5393 11.5869C11.3344 11.509 11.1857 11.4721 11.0371 11.7018C10.8884 11.9314 10.4625 12.44 10.3299 12.5959C10.2013 12.7477 10.0688 12.7682 9.84777 12.6533C8.53795 11.9848 7.67813 11.4598 6.81429 9.94629C6.58527 9.54434 7.0433 9.57305 7.4692 8.70352C7.54152 8.55176 7.50536 8.42051 7.44911 8.30566C7.39286 8.19082 6.94688 7.07109 6.76205 6.61582C6.58125 6.17285 6.39643 6.23438 6.25982 6.22617C6.13125 6.21797 5.98259 6.21797 5.83393 6.21797C5.68527 6.21797 5.4442 6.27539 5.23929 6.50098C5.03437 6.73066 4.45982 7.28027 4.45982 8.4C4.45982 9.51973 5.25938 10.6025 5.36786 10.7543C5.48036 10.9061 6.93884 13.2029 9.17679 14.1914C10.5911 14.8148 11.1455 14.8682 11.8527 14.7615C12.2826 14.6959 13.1705 14.2119 13.3554 13.6787C13.5402 13.1455 13.5402 12.6902 13.4839 12.5959C13.4317 12.4934 13.283 12.4359 13.0621 12.3252Z" fill="#6880FF"/>
<path d="M50.6429 1.375H34.3529C33.6065 1.375 33 1.99805 33 2.76289V19.2371C33 20.002 33.6065 20.625 34.3529 20.625H50.6429C51.3893 20.625 52 20.002 52 19.2371V2.76289C52 1.99805 51.3893 1.375 50.6429 1.375ZM38.7424 17.875H35.9263V8.68828H38.7467V17.875H38.7424ZM37.3344 7.43359C36.431 7.43359 35.7016 6.69023 35.7016 5.7793C35.7016 4.86836 36.431 4.125 37.3344 4.125C38.2335 4.125 38.9672 4.86836 38.9672 5.7793C38.9672 6.69453 38.2377 7.43359 37.3344 7.43359ZM49.2984 17.875H46.4824V13.4062C46.4824 12.3406 46.4612 10.9699 45.0192 10.9699C43.5518 10.9699 43.327 12.1301 43.327 13.3289V17.875H40.5109V8.68828H43.2125V9.94297H43.2507C43.6281 9.22109 44.5484 8.46055 45.9183 8.46055C48.7683 8.46055 49.2984 10.3641 49.2984 12.8391V17.875Z" fill="#6880FF"/>
<g clip-path="url(#clip0_3_604)">
<path d="M74.0206 15.7473C74.0206 15.8215 73.9371 15.8809 73.8319 15.8809C73.7121 15.892 73.6286 15.8326 73.6286 15.7473C73.6286 15.673 73.7121 15.6137 73.8173 15.6137C73.9262 15.6025 74.0206 15.6619 74.0206 15.7473ZM72.8919 15.5803C72.8665 15.6545 72.9391 15.7398 73.048 15.7621C73.1423 15.7992 73.2512 15.7621 73.273 15.6879C73.2948 15.6137 73.2258 15.5283 73.1169 15.4949C73.0226 15.4689 72.9173 15.5061 72.8919 15.5803ZM74.496 15.5172C74.3907 15.5432 74.3181 15.6137 74.329 15.699C74.3399 15.7732 74.4343 15.8215 74.5431 15.7955C74.6484 15.7695 74.721 15.699 74.7101 15.6248C74.6992 15.5543 74.6012 15.5061 74.496 15.5172ZM76.8839 1.29688C71.8504 1.29688 68 5.20449 68 10.3516C68 14.467 70.5331 17.9887 74.1512 19.2281C74.6157 19.3135 74.779 19.0203 74.779 18.7791C74.779 18.549 74.7681 17.2799 74.7681 16.5006C74.7681 16.5006 72.2278 17.0572 71.6944 15.3947C71.6944 15.3947 71.2806 14.3148 70.6855 14.0365C70.6855 14.0365 69.8544 13.4539 70.7435 13.465C70.7435 13.465 71.6472 13.5393 72.1444 14.4225C72.9391 15.8549 74.271 15.443 74.7899 15.198C74.8734 14.6043 75.1093 14.1924 75.3706 13.9475C73.3419 13.7174 71.2952 13.4168 71.2952 9.84688C71.2952 8.82637 71.571 8.31426 72.1516 7.66113C72.0573 7.41992 71.7488 6.42539 72.246 5.14141C73.0044 4.9002 74.75 6.14336 74.75 6.14336C75.4758 5.93555 76.256 5.82793 77.029 5.82793C77.802 5.82793 78.5823 5.93555 79.3081 6.14336C79.3081 6.14336 81.0536 4.89648 81.8121 5.14141C82.3093 6.4291 82.0008 7.41992 81.9065 7.66113C82.4871 8.31797 82.8427 8.83008 82.8427 9.84688C82.8427 13.4279 80.7052 13.7137 78.6766 13.9475C79.0105 14.2406 79.2935 14.7973 79.2935 15.6693C79.2935 16.9199 79.2827 18.4674 79.2827 18.7717C79.2827 19.0129 79.4496 19.3061 79.9105 19.2207C83.5395 17.9887 86 14.467 86 10.3516C86 5.20449 81.9173 1.29688 76.8839 1.29688ZM71.5274 14.0959C71.4802 14.133 71.4911 14.2184 71.5528 14.2889C71.6109 14.3482 71.6944 14.3742 71.7415 14.326C71.7887 14.2889 71.7778 14.2035 71.7161 14.133C71.6581 14.0736 71.5746 14.0477 71.5274 14.0959ZM71.1355 13.7953C71.1101 13.8436 71.1464 13.9029 71.219 13.94C71.277 13.9771 71.3496 13.966 71.375 13.9141C71.4004 13.8658 71.3641 13.8064 71.2915 13.7693C71.219 13.7471 71.1609 13.7582 71.1355 13.7953ZM72.3113 15.1164C72.2532 15.1646 72.275 15.276 72.3585 15.3465C72.4419 15.4318 72.5472 15.443 72.5944 15.3836C72.6415 15.3354 72.6198 15.224 72.5472 15.1535C72.4673 15.0682 72.3585 15.057 72.3113 15.1164ZM71.8976 14.5709C71.8395 14.608 71.8395 14.7045 71.8976 14.7898C71.9556 14.8752 72.0536 14.9123 72.1008 14.8752C72.1589 14.827 72.1589 14.7305 72.1008 14.6451C72.05 14.5598 71.9556 14.5227 71.8976 14.5709Z" fill="#6880FF"/>
</g>
<defs>
<clipPath id="clip0_3_604">
<rect width="18" height="19" fill="white" transform="translate(68 1)"/>
</clipPath>
</defs>
</svg>
